<svg xmlns="http://www.w3.org/2000/svg" xmlns:xlink="http://www.w3.org/1999/xlink" version="1.1" width="256" height="256" viewBox="0 0 256 256" xml:space="preserve">
<g style="stroke: none; stroke-width: 0; stroke-dasharray: none; stroke-linecap: butt; stroke-linejoin: miter; stroke-miterlimit: 10; fill: none; fill-rule: nonzero; opacity: 1;" transform="translate(1.4065934065934016 1.4065934065934016) scale(2.81 2.81)">
	<path d="M 55.119 21.859 V 0 H 18.957 c -3.278 0 -5.935 2.657 -5.935 5.935 v 78.13 c 0 3.278 2.657 5.935 5.935 5.935 h 52.087 c 3.278 0 5.935 -2.657 5.935 -5.935 V 21.859 H 55.119 z" style="stroke: none; stroke-width: 1; stroke-dasharray: none; stroke-linecap: butt; stroke-linejoin: miter; stroke-miterlimit: 10; fill: rgb(0,172,71); fill-rule: nonzero; opacity: 1;" transform=" matrix(1 0 0 1 0 0) " stroke-linecap="round"/>
	<polygon points="55.12,0 76.98,21.86 55.12,21.86 " style="stroke: none; stroke-width: 1; stroke-dasharray: none; stroke-linecap: butt; stroke-linejoin: miter; stroke-miterlimit: 10; fill: rgb(0,131,45); fill-rule: nonzero; opacity: 1;" transform="  matrix(1 0 0 1 0 0) "/>
	<path d="M 24.819 34.571 v 29.039 h 40.362 V 34.571 H 24.819 z M 61.09 47.045 H 47.045 v -8.383 H 61.09 V 47.045 z M 42.955 38.662 v 8.383 H 28.91 v -8.383 H 42.955 z M 28.91 51.136 h 14.044 v 8.384 H 28.91 V 51.136 z M 47.045 59.52 v -8.384 H 61.09 v 8.384 H 47.045 z" style="stroke: none; stroke-width: 1; stroke-dasharray: none; stroke-linecap: butt; stroke-linejoin: miter; stroke-miterlimit: 10; fill: rgb(255,255,255); fill-rule: nonzero; opacity: 1;" transform=" matrix(1 0 0 1 0 0) " stroke-linecap="round"/>
</g>
</svg>