<svg xmlns="http://www.w3.org/2000/svg" viewBox="0 0 64 64" id="google-one">
  <path fill="#1d83f2" fill-rule="evenodd" d="m46.22,10.49c0-1.72-12.98,6.7-12.98,10.82v18.96c0,5.06,12.98,14.97,12.98,13.24V10.49h0Z"></path>
  <path fill="#0ba84a" fill-rule="evenodd" d="m33.24,38c.12.08.25.17.37.26l12.61,9.46v5.79c0,1.72-.68,3.37-1.9,4.59-1.22,1.22-2.87,1.9-4.59,1.9h0c-1.72,0-3.37-.68-4.59-1.9-1.22-1.22-1.9-2.87-1.9-4.59v-15.51h0Z"></path>
  <path fill="#f9b406" fill-rule="evenodd" d="m35.84,5.3c-8.62,6.47-6.84,5.13-15.46,11.59-1.38,1.03-2.29,2.57-2.53,4.27-.24,1.7.2,3.44,1.23,4.81t0,0c1.03,1.38,2.57,2.29,4.27,2.53,1.7.24,3.43-.2,4.81-1.23,4.05-3.04,5.8-4.35,7.42-5.56,1.82-1.37,1.63-17.45.25-16.42Z"></path>
  <path fill="#ef3930" fill-rule="evenodd" d="m35.76,5.35c-.22.17-.43.35-.62.55-1.22,1.22-1.9,2.87-1.9,4.59v12.98l10.39-7.79c1.38-1.03,2.29-2.57,2.53-4.27.24-1.7-.2-3.43-1.23-4.81h0c-1.03-1.38-2.57-2.29-4.27-2.53-1.7-.24-3.43.2-4.81,1.23l-.07.06h0Z"></path>
</svg>
