<svg xmlns="http://www.w3.org/2000/svg"  viewBox="0 0 48 48" width="96px" height="96px" fill-rule="evenodd" clip-rule="evenodd" baseProfile="basic"><linearGradient id="fCC5pJtddF3Ygln2ciVk8a" x1="-281.988" x2="-258.988" y1="-75.503" y2="-52.503" gradientTransform="translate(293.993 87.501)" gradientUnits="userSpaceOnUse"><stop offset="0" stop-color="#55adfd"/><stop offset="1" stop-color="#438ffd"/></linearGradient><path fill="url(#fCC5pJtddF3Ygln2ciVk8a)" d="M24.005,3.997c11.04,0,20.002,8.961,20.002,20.001	s-8.961,20.001-20.002,20.001S4.003,35.038,4.003,23.998S12.965,3.997,24.005,3.997z"/><linearGradient id="fCC5pJtddF3Ygln2ciVk8b" x1="-272.99" x2="-272.99" y1="-77.502" y2="-71.502" gradientTransform="translate(296.993 93.501)" gradientUnits="userSpaceOnUse"><stop offset="0"/><stop offset="1" stop-color="#fff"/></linearGradient><path fill="url(#fCC5pJtddF3Ygln2ciVk8b)" fill-rule="evenodd" d="M22.002,20.001	v9.999h4.001v-9.999H22.002z" clip-rule="evenodd"/><linearGradient id="fCC5pJtddF3Ygln2ciVk8c" x1="-278.989" x2="-278.989" y1="-77.502" y2="-71.502" gradientTransform="translate(296.993 93.501)" gradientUnits="userSpaceOnUse"><stop offset="0"/><stop offset="1" stop-color="#fff"/></linearGradient><path fill="url(#fCC5pJtddF3Ygln2ciVk8c)" fill-rule="evenodd" d="M16.003,19.999	v9.999h4.001v-9.999H16.003z" clip-rule="evenodd"/><linearGradient id="fCC5pJtddF3Ygln2ciVk8d" x1="-266.99" x2="-266.99" y1="-77.502" y2="-71.502" gradientTransform="translate(296.993 93.501)" gradientUnits="userSpaceOnUse"><stop offset="0"/><stop offset="1" stop-color="#fff"/></linearGradient><path fill="url(#fCC5pJtddF3Ygln2ciVk8d)" fill-rule="evenodd" d="M28.002,20.001	v9.999h4.001v-9.999H28.002z" clip-rule="evenodd"/><linearGradient id="fCC5pJtddF3Ygln2ciVk8e" x1="497.502" x2="503.502" y1="-394.989" y2="-394.989" gradientTransform="rotate(-90 476.247 57.254)" gradientUnits="userSpaceOnUse"><stop offset="0"/><stop offset="1" stop-color="#fff"/></linearGradient><path fill="url(#fCC5pJtddF3Ygln2ciVk8e)" fill-rule="evenodd" d="M14.002,32.002	l0.001-2.003c0-0.552,0.448-1,1-1h18c0.552,0,1,0.448,1,1v2.003H14.002z" clip-rule="evenodd"/><path fill="#fff" fill-rule="evenodd" d="M13.002,34.002	l0.001-2.003c0-0.552,0.448-1,1-1h20c0.552,0,1,0.448,1,1v2.003H13.002z" clip-rule="evenodd"/><linearGradient id="fCC5pJtddF3Ygln2ciVk8f" x1="-269.989" x2="-269.989" y1="-78.002" y2="-72.002" gradientTransform="translate(293.993 92.001)" gradientUnits="userSpaceOnUse"><stop offset="0"/><stop offset="1" stop-color="#fff"/></linearGradient><path fill="url(#fCC5pJtddF3Ygln2ciVk8f)" fill-rule="evenodd" d="M14.003,17.997	l0.001,2.003c0,0.552,0.448,1,1,1h18c0.552,0,1-0.448,1-1v-2.003H14.003z" clip-rule="evenodd"/><path fill="#fff" fill-rule="evenodd" d="M13.003,18.999v-2	c0-0.388,0.22-0.725,0.545-0.891l9.999-5c0.136-0.069,0.291-0.109,0.455-0.109c0.163,0,0.317,0.04,0.453,0.109l9.996,5	c0.325,0.165,0.552,0.503,0.552,0.891v2H13.003z" clip-rule="evenodd"/></svg>