<?xml version="1.0" encoding="UTF-8"?>
<svg version="1.1" xmlns="http://www.w3.org/2000/svg" width="512" height="512">
<path d="M0 0 C1.41539062 1.06541016 1.41539062 1.06541016 2.859375 2.15234375 C14.7821122 11.43613115 26.25454703 22.04346707 35.76953125 33.78125 C36.56593018 34.76158203 37.3623291 35.74191406 38.18286133 36.75195312 C39.08234497 37.86473633 39.08234497 37.86473633 40 39 C40.01401855 37.11680054 40.01401855 37.11680054 40.02832031 35.19555664 C40.06841784 30.50428764 40.13423078 25.81366087 40.20751953 21.12280273 C40.235615 19.09879859 40.25688595 17.07468706 40.27099609 15.05053711 C40.29258448 12.12818879 40.33931512 9.20711623 40.390625 6.28515625 C40.39185364 5.39103531 40.39308228 4.49691437 40.39434814 3.57569885 C40.55227961 -3.31396056 41.92083331 -9.73269723 46.77886963 -14.88755798 C53.10541444 -20.58484727 58.00033105 -21.51148238 66.51171875 -21.37890625 C72.86513022 -20.68878205 76.66524406 -17.66047551 80.875 -13.0625 C85.36974908 -6.58477339 85.29278493 -0.50736031 85.2746582 7.11083984 C85.2823246 8.77536949 85.2823246 8.77536949 85.29014587 10.473526 C85.30402788 14.13605161 85.30308605 17.79838873 85.30078125 21.4609375 C85.30466904 24.01152618 85.30900388 26.56211422 85.31376648 29.11270142 C85.32122579 34.4573198 85.32107823 39.80186925 85.31567383 45.14648438 C85.30963708 51.3097435 85.32194114 57.47277416 85.3432439 63.63599432 C85.36303407 69.58190217 85.36602765 75.5277397 85.36250877 81.4736824 C85.36302151 83.99580039 85.36825031 86.51792206 85.37832069 89.04001999 C85.39068643 92.57031491 85.38389189 96.10008429 85.37231445 99.63037109 C85.37995819 100.66751755 85.38760193 101.704664 85.39547729 102.77323914 C85.34260384 110.08469298 84.55191965 115.96528474 79.6875 121.75 C73.90903499 126.58778466 69.72471821 129.10862264 62.21369934 129.14717102 C61.25357941 129.15432632 60.29345947 129.16148163 59.304245 129.16885376 C57.73402336 129.17288712 57.73402336 129.17288712 56.13208008 129.17700195 C54.47039795 129.18685875 54.47039795 129.18685875 52.77514648 129.19691467 C49.10660738 129.2166357 45.4381092 129.22830789 41.76953125 129.23828125 C39.88876672 129.24439454 39.88876672 129.24439454 37.97000694 129.25063133 C32.01715296 129.26933776 26.06431194 129.28390426 20.11143571 129.2922433 C13.25732845 129.30200525 6.40354502 129.3283017 -0.45044822 129.36874419 C-6.40060136 129.40263919 -12.35067595 129.41439621 -18.30092812 129.41844749 C-20.82502754 129.42331303 -23.34912352 129.43492598 -25.87315941 129.45348549 C-29.41073618 129.47788011 -32.94747196 129.47691068 -36.48510742 129.4699707 C-37.52180069 129.48278076 -38.55849396 129.49559082 -39.62660217 129.50878906 C-46.87139434 129.45715128 -53.44482076 128.36004345 -58.88275433 123.22058582 C-64.59065403 116.90384124 -65.5114137 111.99525954 -65.37890625 103.48828125 C-64.68878205 97.13486978 -61.66047551 93.33475594 -57.0625 89.125 C-52.02102089 85.62683082 -47.51568421 84.75315041 -41.44384766 84.68115234 C-40.16297272 84.66128265 -38.88209778 84.64141296 -37.56240845 84.62094116 C-36.17962822 84.60906748 -34.79684616 84.59740447 -33.4140625 84.5859375 C-31.98773091 84.56721021 -30.56141021 84.54763565 -29.13510132 84.5272522 C-25.39681444 84.47608959 -21.6584917 84.43637945 -17.92004395 84.39910889 C-14.09895066 84.35896922 -10.27800449 84.30792252 -6.45703125 84.2578125 C1.02854463 84.16124138 8.51419214 84.07677703 16 84 C14.88712032 82.24041183 13.77283493 80.48171268 12.65795898 78.72338867 C12.03759262 77.74391769 11.41722626 76.76444672 10.77806091 75.7552948 C-12.53377997 39.63111396 -51.67249267 14.87562991 -93.3125 5.75 C-139.65324543 -3.79824374 -185.77176865 6.409771 -225.30859375 31.85888672 C-229.81978585 34.90237861 -233.92510566 38.40487151 -238 42 C-238.86367187 42.75410156 -239.72734375 43.50820312 -240.6171875 44.28515625 C-243.10850105 46.49250549 -245.55977501 48.73642429 -248 51 C-248.64195312 51.57621094 -249.28390625 52.15242188 -249.9453125 52.74609375 C-280.09861081 81.07000786 -296.76447154 124.97275655 -298.125 165.74609375 C-298.98180942 208.14303996 -284.89868194 250.77165943 -256.34375 282.50048828 C-255.03393678 283.96212941 -253.75090895 285.44763484 -252.46875 286.93359375 C-246.8254156 293.37163822 -240.81980876 298.83347821 -234 304 C-233.47422363 304.4007373 -232.94844727 304.80147461 -232.40673828 305.21435547 C-195.97026436 332.7812121 -151.28396107 344.72262385 -105.84643555 339.22583008 C-69.61512282 333.94921141 -37.93014688 317.28958774 -11 293 C-10.25105469 292.32453125 -9.50210937 291.6490625 -8.73046875 290.953125 C3.05297529 279.72165492 12.34465229 265.63816673 20.0637207 251.39160156 C24.13885009 243.92866601 28.40288834 237.13643449 36.9375 234.5 C43.62510739 233.30437667 50.3301857 234.17903819 56 238 C61.65393875 243.39151965 64.58715707 247.87157068 65.375 255.75 C64.42542754 282.33802894 33.52207221 312.47299671 15.52587891 329.58349609 C-26.0479249 368.17728965 -82.51499008 386.78667796 -138.68017578 385.14794922 C-169.67911418 383.76646983 -200.77551658 375.82326974 -228.10986328 361.02099609 C-230.0199462 359.98922565 -231.9443964 358.98861671 -233.87109375 357.98828125 C-249.57333695 349.66970318 -263.8387985 338.89386168 -276.51025391 326.45898438 C-278.01728075 324.98307608 -279.54418369 323.53013167 -281.07421875 322.078125 C-296.12271762 307.62187904 -308.105422 290.30940854 -318 272 C-318.32323242 271.41476562 -318.64646484 270.82953125 -318.97949219 270.2265625 C-345.30346864 222.24096562 -349.60931219 163.72103026 -334.98388672 111.44604492 C-321.96121937 66.93243649 -294.5599903 26.41573215 -257 -1 C-255.94296875 -1.77859375 -254.8859375 -2.5571875 -253.796875 -3.359375 C-179.38445028 -56.51110694 -75.16048803 -56.30668091 0 0 Z " fill="#000000" transform="translate(385,85)"/>
</svg>
